<svg width="32" height="32" viewBox="0 0 32 32" fill="none" xmlns="http://www.w3.org/2000/svg">
<path d="M31.0602 26.0996C30.715 26.0996 30.4352 26.3794 30.4352 26.7246V30.4726C30.4352 30.6256 30.3107 30.75 30.1577 30.75H9.52979C9.37679 30.75 9.25235 30.6256 9.25235 30.4726V22.8892L9.6766 22.4651C9.92066 22.221 9.92066 21.8253 9.6766 21.5811L9.52354 21.4281L10.947 20.0046C13.3569 21.1544 16.3458 20.6459 18.2289 18.7501C19.4382 17.5408 20.1041 15.9329 20.1041 14.2227C20.1041 10.7321 17.1916 7.81962 13.701 7.81962C12.0487 7.81962 10.4411 8.46912 9.25235 9.61769V4.23419C9.25235 4.08119 9.37685 3.95675 9.52979 3.95675H11.8644V4.70444C11.8644 5.71888 12.7127 6.56787 13.7271 6.56787H25.9604C26.9744 6.56787 27.8237 5.71844 27.8237 4.70444V3.95675H30.1577C30.3107 3.95675 30.4351 4.08119 30.4351 4.23419V21.2304C30.4351 21.5755 30.7149 21.8554 31.0601 21.8554C31.4053 21.8554 31.6851 21.5755 31.6851 21.2304V4.23419C31.6851 3.39194 30.9999 2.70675 30.1577 2.70675L24.607 2.70581V2.27588C24.607 1.02094 23.5861 0 22.3312 0H17.3568C16.1019 0 15.0809 1.02094 15.0809 2.27588V2.70581L9.52979 2.70675C8.68754 2.70675 8.00235 3.392 8.00235 4.23419V11.3029C7.08716 13.0922 7.06816 15.2253 7.9456 17.0288L6.5346 18.4398L6.39504 18.3003C6.15098 18.0562 5.75529 18.0563 5.51116 18.3003L1.16579 22.6457C0.0312256 23.7804 0.0311006 25.6758 1.16579 26.8106C2.30048 27.9453 4.1961 27.9453 5.33085 26.8105L8.00235 24.1387V30.4724C8.00235 31.3147 8.68754 31.9999 9.52979 31.9999H30.1577C30.9999 31.9999 31.6851 31.3146 31.6851 30.4724V26.7244C31.6852 26.3794 31.4054 26.0996 31.0602 26.0996ZM15.7059 3.95581C16.0511 3.95581 16.3309 3.67594 16.3309 3.33081V2.27588C16.3309 1.71019 16.7911 1.25 17.3568 1.25H22.3312C22.8968 1.25 23.3571 1.71019 23.3571 2.27588V3.33081C23.3571 3.67594 23.6369 3.95581 23.9821 3.95581H26.5728V4.70544C26.5728 5.03856 26.2941 5.31712 25.961 5.31712H13.7272C13.3944 5.31712 13.1147 5.03856 13.1147 4.70544V3.95581H15.7059ZM9.9096 17.711C8.33041 15.9973 8.11354 13.3417 9.39341 11.3939C10.338 9.95525 11.9804 9.06962 13.701 9.06962C15.2569 9.06962 16.7424 9.78587 17.7185 10.9963C19.2332 12.8794 19.229 15.5881 17.7051 17.4662C15.7535 19.8674 12.0072 19.9891 9.9096 17.711ZM8.62123 18.121C8.97729 18.5842 9.39716 18.9667 9.84735 19.3362L8.63929 20.5443L7.41854 19.3237L8.62123 18.121ZM4.44691 25.9267C3.79373 26.5799 2.70335 26.5805 2.04973 25.9268C1.38885 25.2659 1.38885 24.1906 2.04973 23.5296L5.95316 19.6261L8.35035 22.0229L4.44691 25.9267Z" fill="#13AB4E"/>
<path d="M20.9936 2.65857C20.9925 2.65857 20.9915 2.65857 20.9904 2.65857C20.6606 2.66013 19.0449 2.66013 18.7138 2.65857C18.7127 2.65857 18.7117 2.65857 18.7106 2.65857C18.3669 2.65857 18.0874 2.93638 18.0857 3.28051C18.084 3.62563 18.3625 3.90682 18.7076 3.90857H20.9965C21.3416 3.90688 21.6201 3.62569 21.6185 3.28051C21.6168 2.93644 21.3373 2.65857 20.9936 2.65857Z" fill="#13AB4E"/>
<path d="M15.2764 22.0471C13.4339 22.0471 11.9349 23.5461 11.9349 25.3886C11.9349 27.2311 13.4339 28.7301 15.2764 28.7301C16.6336 28.7301 17.8459 27.9197 18.3649 26.6657C18.4969 26.3468 18.3454 25.9812 18.0264 25.8492C17.7074 25.7172 17.3419 25.8687 17.2099 26.1877C16.885 26.9729 16.126 27.4801 15.2763 27.4801C14.1231 27.4801 13.1849 26.5419 13.1849 25.3887C13.1849 24.2354 14.1231 23.2972 15.2763 23.2972C15.6215 23.2972 15.9013 23.0173 15.9013 22.6722C15.9013 22.3271 15.6216 22.0471 15.2764 22.0471Z" fill="#13AB4E"/>
<path d="M26.8733 11.934H21.7384C21.3932 11.934 21.1134 12.2138 21.1134 12.559C21.1134 12.9041 21.3932 13.184 21.7384 13.184H26.8733C27.2185 13.184 27.4983 12.9041 27.4983 12.559C27.4983 12.2138 27.2184 11.934 26.8733 11.934Z" fill="#13AB4E"/>
<path d="M24.9288 16.1494C25.274 16.1494 25.5538 15.8695 25.5538 15.5244C25.5538 15.1793 25.274 14.8994 24.9288 14.8994H21.7384C21.3932 14.8994 21.1134 15.1793 21.1134 15.5244C21.1134 15.8695 21.3932 16.1494 21.7384 16.1494H24.9288Z" fill="#13AB4E"/>
<path d="M27.4983 23.8446C27.4983 23.4995 27.2184 23.2196 26.8733 23.2196H21.3097C20.9645 23.2196 20.6847 23.4995 20.6847 23.8446C20.6847 24.1897 20.9645 24.4696 21.3097 24.4696H26.8733C27.2184 24.4696 27.4983 24.1897 27.4983 23.8446Z" fill="#13AB4E"/>
<path d="M21.3097 26.1851C20.9645 26.1851 20.6847 26.4649 20.6847 26.8101C20.6847 27.1552 20.9645 27.4351 21.3097 27.4351H24.9288C25.274 27.4351 25.5538 27.1552 25.5538 26.8101C25.5538 26.4649 25.274 26.1851 24.9288 26.1851H21.3097Z" fill="#13AB4E"/>
<path d="M15.1023 24.4994C14.8583 24.2554 14.4625 24.2554 14.2184 24.4994C13.9744 24.7434 13.9744 25.1392 14.2184 25.3833L15.0714 26.2362C15.3104 26.4751 15.7158 26.4757 15.9553 26.2362L18.2295 23.9622C18.4735 23.7181 18.4736 23.3224 18.2295 23.0782C17.9854 22.8343 17.5896 22.8342 17.3456 23.0782L15.5134 24.9104L15.1023 24.4994Z" fill="#13AB4E"/>
<path d="M31.6384 23.7481C31.5073 23.4337 31.1375 23.2798 30.8222 23.41C30.5075 23.5399 30.3535 23.9118 30.484 24.2263C30.6147 24.541 30.9853 24.6948 31.3003 24.5644C31.6142 24.4343 31.7694 24.0623 31.6384 23.7481Z" fill="#13AB4E"/>
<path d="M12.4551 16.5122C12.6941 16.751 13.0995 16.7516 13.339 16.5122L16.6121 13.2392C16.8561 12.9951 16.8561 12.5993 16.6121 12.3552C16.368 12.1113 15.9723 12.1112 15.7282 12.3552L12.8971 15.1863L11.7373 14.0266C11.4933 13.7826 11.0975 13.7826 10.8535 14.0266C10.6094 14.2707 10.6094 14.6664 10.8535 14.9105L12.4551 16.5122Z" fill="#13AB4E"/>
</svg>
