<svg width="32" height="32" viewBox="0 0 32 32" fill="none" xmlns="http://www.w3.org/2000/svg">
<g clip-path="url(#clip0_30_1206)">
<path d="M30.3355 9.30004C30.2397 9.19982 30.107 9.14282 29.9681 9.14282H15.238C15.0991 9.14282 14.9664 9.19982 14.8707 9.30004C14.7747 9.40026 14.7241 9.5356 14.7305 9.67452L15.0974 17.5634C15.1104 17.8432 15.3519 18.064 15.6284 18.0471C15.9087 18.0342 16.1253 17.7961 16.1124 17.5158L15.7702 10.1587H29.4364L28.4677 30.984H17.0604C16.7799 30.984 16.5524 31.2112 16.5524 31.492C16.5524 31.7728 16.7799 31.9999 17.0604 31.9999H28.9524C29.2237 31.9999 29.4471 31.7866 29.4598 31.5157L30.4756 9.67452C30.482 9.5356 30.4315 9.40026 30.3355 9.30004Z" fill="#333333"/>
<path d="M20.8255 27.9365H2.53982C2.25931 27.9365 2.03186 28.1637 2.03186 28.4445C2.03186 30.4048 3.62687 32 5.58743 32H17.7779C19.7383 32 21.3334 30.4047 21.3334 28.4445C21.3333 28.1637 21.106 27.9365 20.8255 27.9365ZM17.7779 30.9841H5.58743C4.36087 30.9841 3.33461 30.1101 3.09882 28.9524H20.2665C20.0305 30.1101 19.0043 30.9841 17.7779 30.9841Z" fill="#333333"/>
<path d="M20.8254 24.8889H2.53982C1.41958 24.8889 0.508057 25.8001 0.508057 26.9207C0.508057 28.0412 1.41951 28.9524 2.53982 28.9524H20.8254C21.9457 28.9524 22.8572 28.0412 22.8572 26.9207C22.8572 25.8001 21.9457 24.8889 20.8254 24.8889ZM20.8254 27.9365H2.53982C1.97955 27.9365 1.52397 27.4806 1.52397 26.9207C1.52397 26.3607 1.97963 25.9048 2.53982 25.9048H20.8254C21.3857 25.9048 21.8413 26.3607 21.8413 26.9207C21.8413 27.4806 21.3856 27.9365 20.8254 27.9365Z" fill="#333333"/>
<path d="M22.3491 15.2383C20.0316 15.2383 18.0091 16.8039 17.4307 19.0449C17.3605 19.3168 17.5239 19.5935 17.7955 19.6639C18.0678 19.7334 18.3441 19.5707 18.4143 19.2988C18.8768 17.5061 20.4948 16.2541 22.3491 16.2541C24.5897 16.2541 26.4125 18.077 26.4125 20.3176C26.4125 22.5582 24.5897 24.381 22.3491 24.381C21.8831 24.381 21.4267 24.3032 20.9929 24.1494C20.7288 24.0567 20.4381 24.1941 20.3446 24.4585C20.2509 24.7228 20.3893 25.013 20.6537 25.1068C21.1967 25.2992 21.7671 25.3969 22.3491 25.3969C25.15 25.3969 27.4284 23.1182 27.4284 20.3176C27.4284 17.5169 25.1499 15.2383 22.3491 15.2383Z" fill="#333333"/>
<path d="M12.6985 16.762H10.6667C5.90536 16.762 2.03186 20.6355 2.03186 25.3968C2.03186 25.6775 2.25931 25.9048 2.53982 25.9048H20.8255C21.106 25.9048 21.3334 25.6776 21.3334 25.3968C21.3333 20.6355 17.4599 16.762 12.6985 16.762ZM3.06459 24.8889C3.32694 20.9236 6.63623 17.7779 10.6667 17.7779H12.6985C16.729 17.7779 20.0383 20.9236 20.3006 24.8889H3.06459Z" fill="#333333"/>
<path d="M7.61911 19.8096H6.60327V20.8254H7.61911V19.8096Z" fill="#333333"/>
<path d="M7.11118 21.8413H6.09534V22.8572H7.11118V21.8413Z" fill="#333333"/>
<path d="M13.2064 19.3015H12.1906V20.3174H13.2064V19.3015Z" fill="#333333"/>
<path d="M16.2539 21.8413H15.238V22.8572H16.2539V21.8413Z" fill="#333333"/>
<path d="M11.6826 22.3491H10.6667V23.365H11.6826V22.3491Z" fill="#333333"/>
<path d="M30.984 7.11133H13.7143C13.4338 7.11133 13.2063 7.33848 13.2063 7.61929V9.65104C13.2063 9.93177 13.4338 10.159 13.7143 10.159H30.984C31.2645 10.159 31.492 9.93184 31.492 9.65104V7.61929C31.492 7.33848 31.2645 7.11133 30.984 7.11133ZM30.4761 9.14301H14.2222V8.12717H30.4761V9.14301Z" fill="#333333"/>
<path d="M17.7666 7.51272L16.2428 0.401671C16.184 0.127862 15.9145 -0.0477319 15.6396 0.011866C15.3654 0.0704223 15.1905 0.340734 15.2493 0.615063L16.7731 7.72612C16.8241 7.96421 17.0349 8.12738 17.2694 8.12738C17.3046 8.12738 17.3406 8.12381 17.3763 8.11592C17.6506 8.05736 17.8255 7.78698 17.7666 7.51272Z" fill="#333333"/>
</g>
<defs>
<clipPath id="clip0_30_1206">
<rect width="32" height="32" fill="white"/>
</clipPath>
</defs>
</svg>
